<!--?xml version="1.0" standalone="no"?-->
              <svg id="sw-js-blob-svg" viewBox="0 0 100 100" xmlns="http://www.w3.org/2000/svg" version="1.1">
                    <defs> 
                        <linearGradient id="sw-gradient" x1="0" x2="1" y1="1" y2="0">
                            <stop id="stop1" stop-color="rgba(210.167, 222.853, 223.95, 1)" offset="0%"></stop>
                            <stop id="stop2" stop-color="rgba(62.117, 14.289, 223.95, 1)" offset="100%"></stop>
                        </linearGradient>
                    </defs>
                <path fill="url(#sw-gradient)" d="M22.9,-33.3C27.8,-28,28.7,-18.8,28.8,-11.1C28.8,-3.5,28,2.7,26,8.3C23.9,13.9,20.6,18.9,16.1,21.7C11.6,24.5,5.8,25.2,-0.1,25.3C-5.9,25.4,-11.8,24.9,-19.5,23.1C-27.2,21.3,-36.7,18.2,-39.2,12.3C-41.7,6.4,-37.3,-2.1,-32.5,-8.6C-27.7,-15.1,-22.5,-19.5,-17,-24.7C-11.6,-29.8,-5.8,-35.8,1.6,-38C9,-40.2,18,-38.7,22.9,-33.3Z" width="100%" height="100%" transform="translate(50 50)" stroke-width="0" style="transition: all 0.3s ease 0s;"></path>
              </svg>